<?xml version="1.0" encoding="UTF-8" standalone="no"?><svg xmlns="http://www.w3.org/2000/svg" xmlns:xlink="http://www.w3.org/1999/xlink" enable-background="new 0 0 500 310.9005432" fill="#000000" height="350.3" id="Illustration" preserveAspectRatio="xMidYMid meet" version="1.1" viewBox="-35.8 -19.7 571.5 350.3" width="571.5" x="0" xml:space="preserve" y="0" zoomAndPan="magnify"><filter id="AI_GaussianBlur_4" xlink:actuate="onLoad" xlink:show="other" xlink:type="simple"><feGaussianBlur stdDeviation="4"/></filter><g id="change1_1"><path d="M24.9380493,301.4086914c-7.2144833,0-13.0837221-5.8692322-13.0837221-13.0837097V22.5755672 c0-7.2144823,5.8692389-13.0837221,13.0837221-13.0837221h450.1239014c7.2144775,0,13.0837097,5.8692398,13.0837097,13.0837221 v265.7494202c0,7.2144775-5.8692322,13.0837097-13.0837097,13.0837097H24.9380493z M461.978241,275.2412415V35.6592903H38.0217705 v239.581955H461.978241z" fill="#ffcc33" filter="url(#AI_GaussianBlur_4)"/></g><g id="change2_1"><path d="M475.0620117,293.3247986H24.9379883c-2.7612305,0-5-2.2387695-5-5V22.5757599c0-2.7612305,2.2387695-5,5-5 h450.1240234c2.7612305,0,5,2.2387695,5,5v265.7490234C480.0620117,291.0860291,477.8232422,293.3247986,475.0620117,293.3247986z M29.9379883,283.3247986h440.1240234V27.5757599H29.9379883V283.3247986z" fill="#f9d4fa"/></g></svg>